<svg width="29" height="31" viewBox="0 0 29 31" fill="none" xmlns="http://www.w3.org/2000/svg">
<path d="M9.13111 20.5325C9.2234 20.6065 9.32845 20.6604 9.44027 20.6911C9.55208 20.7217 9.66846 20.7285 9.78275 20.7111C9.89703 20.6937 10.007 20.6524 10.1063 20.5896C10.2056 20.5268 10.2924 20.4436 10.3616 20.345C10.8932 19.5882 11.5826 18.9739 12.3751 18.5508C13.1677 18.1277 14.0416 17.9075 14.9277 17.9075C15.8138 17.9075 16.6877 18.1277 17.4802 18.5508C18.2727 18.9739 18.9621 19.5882 19.4938 20.345C19.563 20.4435 19.6497 20.5264 19.7489 20.5892C19.8481 20.6519 19.9579 20.6931 20.0721 20.7105C20.1862 20.728 20.3025 20.7212 20.4142 20.6906C20.5259 20.6601 20.6309 20.6063 20.7231 20.5325C20.8154 20.4586 20.8931 20.3661 20.9518 20.2601C21.0106 20.1542 21.0492 20.0369 21.0655 19.9151C21.0818 19.7932 21.0755 19.6691 21.0469 19.5498C21.0183 19.4305 20.9679 19.3185 20.8987 19.22C20.1212 18.107 19.0843 17.2307 17.8913 16.6782C18.5451 16.0408 19.0032 15.2073 19.2054 14.2871C19.4076 13.3668 19.3445 12.4028 19.0244 11.5215C18.7042 10.6402 18.142 9.88282 17.4115 9.34877C16.681 8.81472 15.8163 8.52894 14.931 8.52894C14.0456 8.52894 13.1809 8.81472 12.4504 9.34877C11.7199 9.88282 11.1577 10.6402 10.8375 11.5215C10.5174 12.4028 10.4543 13.3668 10.6565 14.2871C10.8587 15.2073 11.3168 16.0408 11.9707 16.6782C10.7752 17.2296 9.73595 18.106 8.95659 19.22C8.81674 19.4187 8.75657 19.6687 8.78929 19.9148C8.82202 20.1609 8.94497 20.3831 9.13111 20.5325ZM12.2934 13.22C12.2934 12.6637 12.4479 12.1199 12.7373 11.6574C13.0268 11.1949 13.4382 10.8344 13.9196 10.6216C14.4009 10.4087 14.9306 10.353 15.4416 10.4615C15.9526 10.57 16.422 10.8379 16.7904 11.2312C17.1588 11.6246 17.4097 12.1257 17.5113 12.6713C17.613 13.2169 17.5608 13.7824 17.3614 14.2963C17.1621 14.8102 16.8244 15.2494 16.3912 15.5585C15.958 15.8675 15.4487 16.0325 14.9277 16.0325C14.229 16.0325 13.559 15.7362 13.0649 15.2087C12.5709 14.6813 12.2934 13.9659 12.2934 13.22ZM22.8306 2.90747H7.02477C6.559 2.90747 6.1123 3.10501 5.78295 3.45665C5.4536 3.80828 5.26857 4.28519 5.26857 4.78247V7.59497H3.51238C3.27949 7.59497 3.05614 7.69374 2.89147 7.86956C2.72679 8.04537 2.63428 8.28383 2.63428 8.53247C2.63428 8.78111 2.72679 9.01957 2.89147 9.19538C3.05614 9.3712 3.27949 9.46997 3.51238 9.46997H5.26857V14.1575H3.51238C3.27949 14.1575 3.05614 14.2562 2.89147 14.4321C2.72679 14.6079 2.63428 14.8463 2.63428 15.095C2.63428 15.3436 2.72679 15.5821 2.89147 15.7579C3.05614 15.9337 3.27949 16.0325 3.51238 16.0325H5.26857V20.72H3.51238C3.27949 20.72 3.05614 20.8187 2.89147 20.9946C2.72679 21.1704 2.63428 21.4088 2.63428 21.6575C2.63428 21.9061 2.72679 22.1446 2.89147 22.3204C3.05614 22.4962 3.27949 22.595 3.51238 22.595H5.26857V25.4075C5.26857 25.9048 5.4536 26.3817 5.78295 26.7333C6.1123 27.0849 6.559 27.2825 7.02477 27.2825H22.8306C23.2963 27.2825 23.743 27.0849 24.0724 26.7333C24.4017 26.3817 24.5868 25.9048 24.5868 25.4075V4.78247C24.5868 4.28519 24.4017 3.80828 24.0724 3.45665C23.743 3.10501 23.2963 2.90747 22.8306 2.90747ZM22.8306 25.4075H7.02477V4.78247H22.8306V25.4075Z" fill="#850000"/>
</svg>
