<svg width="29" height="31" viewBox="0 0 29 31" fill="none" xmlns="http://www.w3.org/2000/svg">
<path d="M4.68315 25.1426C4.03921 25.1426 3.48777 24.8976 3.02881 24.4076C2.56986 23.9176 2.34077 23.3292 2.34155 22.6426V7.64258C2.34155 6.95508 2.57103 6.36633 3.02998 5.87633C3.48894 5.38633 4.03999 5.14175 4.68315 5.14258H23.4159C24.0599 5.14258 24.6113 5.38758 25.0703 5.87758C25.5292 6.36758 25.7583 6.95591 25.7575 7.64258V22.6426C25.7575 23.3301 25.5281 23.9188 25.0691 24.4088C24.6102 24.8988 24.0591 25.1434 23.4159 25.1426H4.68315ZM23.4159 10.1426L14.6642 15.9863C14.5666 16.0488 14.464 16.0959 14.3563 16.1276C14.2486 16.1592 14.1463 16.1747 14.0495 16.1738C13.952 16.1738 13.8493 16.1584 13.7416 16.1276C13.6339 16.0967 13.5317 16.0497 13.4349 15.9863L4.68315 10.1426V22.6426H23.4159V10.1426ZM14.0495 13.8926L23.4159 7.64258H4.68315L14.0495 13.8926ZM4.68315 10.4551V8.61133V8.64258V8.62758V10.4551Z" fill="#850000"/>
</svg>
