<svg width="29" height="31" viewBox="0 0 29 31" fill="none" xmlns="http://www.w3.org/2000/svg">
<g clip-path="url(#clip0_80_352)">
<path d="M26.7788 14.6429L23.2695 11.3125V6.18897L19.2427 1.88977H8.34184V9.38977H4.39039C4.04119 9.3902 3.7064 9.5385 3.45948 9.80213C3.21255 10.0658 3.07365 10.4232 3.07324 10.796V28.6085C3.07365 28.9813 3.21255 29.3388 3.45948 29.6024C3.7064 29.866 4.04119 30.0143 4.39039 30.0148H27.221V15.694C27.2209 15.4955 27.1815 15.2991 27.1053 15.118C27.0291 14.9368 26.9178 14.7749 26.7788 14.6429ZM8.34184 28.1398H4.82944V11.2648H8.34184V28.1398ZM18.0009 3.76477H18.5153L21.5133 6.96557V7.51477H18.0009V3.76477ZM10.098 3.76477H16.2447V9.38977H21.5133V13.6085H10.098V3.76477ZM25.4648 28.1398H10.098V15.4835H23.2695V13.8212L25.4648 15.9046V28.1398Z" fill="#850000"/>
<path d="M12.7324 21.1085H14.4886V22.9835H12.7324V21.1085ZM16.2448 21.1085H18.001V22.9835H16.2448V21.1085ZM12.7324 24.8585H14.4886V26.7335H12.7324V24.8585ZM16.2448 24.8585H18.001V26.7335H16.2448V24.8585ZM19.7572 21.1085H21.5134V22.9835H19.7572V21.1085ZM19.7572 24.8585H21.5134V26.7335H19.7572V24.8585ZM12.7324 17.3585H21.5134V19.2335H12.7324V17.3585Z" fill="#850000"/>
</g>
<defs>
<clipPath id="clip0_80_352">
<rect width="28.0992" height="30" fill="white" transform="translate(0 0.952271)"/>
</clipPath>
</defs>
</svg>
