<svg width="45" height="45" viewBox="0 0 45 45" fill="none" xmlns="http://www.w3.org/2000/svg">
<path d="M29.0625 26.25H27.5813L27.0563 25.7438C28.228 24.3825 29.0844 22.779 29.5642 21.048C30.0439 19.3171 30.1351 17.5016 29.8313 15.7313C28.95 10.5188 24.6 6.35626 19.35 5.71876C17.5043 5.48526 15.6296 5.67709 13.8694 6.27956C12.1093 6.88203 10.5102 7.87917 9.1947 9.1947C7.87917 10.5102 6.88203 12.1093 6.27956 13.8694C5.67709 15.6296 5.48526 17.5043 5.71876 19.35C6.35626 24.6 10.5188 28.95 15.7313 29.8313C17.5015 30.1351 19.3171 30.0439 21.048 29.5642C22.779 29.0844 24.3824 28.228 25.7438 27.0563L26.25 27.5813V29.0625L34.2188 37.0313C34.9875 37.8 36.2438 37.8 37.0125 37.0313C37.7813 36.2625 37.7813 35.0063 37.0125 34.2375L29.0625 26.25ZM17.8125 26.25C13.1438 26.25 9.37501 22.4813 9.37501 17.8125C9.37501 13.1438 13.1438 9.37501 17.8125 9.37501C22.4813 9.37501 26.25 13.1438 26.25 17.8125C26.25 22.4813 22.4813 26.25 17.8125 26.25Z" fill="white"/>
</svg>
