<svg width="27" height="26" viewBox="0 0 27 26" fill="none" xmlns="http://www.w3.org/2000/svg">
<path d="M9.25 5.93815C10.0788 5.93815 10.8737 6.26463 11.4597 6.84576C12.0458 7.42689 12.375 8.21508 12.375 9.03693C12.375 9.85877 12.0458 10.647 11.4597 11.2281C10.8737 11.8092 10.0788 12.1357 9.25 12.1357C8.4212 12.1357 7.62634 11.8092 7.04029 11.2281C6.45424 10.647 6.125 9.85877 6.125 9.03693C6.125 8.21508 6.45424 7.42689 7.04029 6.84576C7.62634 6.26463 8.4212 5.93815 9.25 5.93815ZM9.25 0.360352C14.0875 0.360352 18 4.24002 18 9.03693C18 15.5444 9.25 25.1506 9.25 25.1506C9.25 25.1506 0.5 15.5444 0.5 9.03693C0.5 4.24002 4.4125 0.360352 9.25 0.360352ZM9.25 2.83937C5.8 2.83937 3 5.61588 3 9.03693C3 10.2764 3 12.7555 9.25 21.0726C15.5 12.7555 15.5 10.2764 15.5 9.03693C15.5 5.61588 12.7 2.83937 9.25 2.83937ZM20.5 18.953L26.75 12.7555L20.5 6.55791V18.953Z" fill="white"/>
</svg>
