<svg width="29" height="30" viewBox="0 0 29 30" fill="none" xmlns="http://www.w3.org/2000/svg">
<path d="M7.75074 13.4875C9.43669 17.025 12.1529 19.9125 15.4663 21.725L18.0421 18.975C18.3582 18.6375 18.8265 18.525 19.2363 18.675C20.5476 19.1375 21.9642 19.3875 23.416 19.3875C24.06 19.3875 24.5868 19.95 24.5868 20.6375V25C24.5868 25.6875 24.06 26.25 23.416 26.25C12.4222 26.25 3.51245 16.7375 3.51245 5C3.51245 4.3125 4.03931 3.75 4.68325 3.75H8.78105C9.42499 3.75 9.95185 4.3125 9.95185 5C9.95185 6.5625 10.186 8.0625 10.6192 9.4625C10.748 9.9 10.6543 10.3875 10.3265 10.7375L7.75074 13.4875Z" fill="#850000"/>
</svg>

