<svg width="32" height="32" viewBox="0 0 32 32" fill="none" xmlns="http://www.w3.org/2000/svg">
<path d="M30.9991 28.0875V23.5713C31.0174 22.833 30.7632 22.1136 30.2847 21.5501C28.9357 19.9611 24.3091 18.9448 22.4751 19.3351C21.0456 19.6395 20.0452 21.0748 19.0674 22.0508C15.2911 19.9076 12.1643 16.7871 10.017 13.0181C10.9948 12.0423 12.4331 11.0441 12.7381 9.61726C13.1286 7.78974 12.1135 3.19259 10.5355 1.83817C9.98048 1.36177 9.27078 1.10305 8.53875 1.11025H4.01351C2.28929 1.11187 0.854791 2.65836 1.01177 4.39209C0.999991 19.3351 12.6667 31.1102 27.7107 31.0983C29.4537 31.2557 31.0061 29.814 30.9991 28.0875Z" stroke="white" stroke-width="1.5" stroke-linecap="round" stroke-linejoin="round"/>
<path d="M20.1665 7.71289C21.3952 7.9842 22.6147 8.5975 23.4998 9.59937C24.385 10.6012 24.9268 11.9817 25.1665 13.3723" stroke="white" stroke-width="1.5" stroke-linecap="round" stroke-linejoin="round"/>
<path d="M20.9999 1.11011C23.5524 1.43107 25.8494 2.82882 27.6665 4.88306C29.4837 6.9373 30.713 9.54018 30.9999 12.429" stroke="white" stroke-width="1.5" stroke-linecap="round" stroke-linejoin="round"/>
</svg>
