<svg width="82" height="66" viewBox="0 0 82 66" fill="none" xmlns="http://www.w3.org/2000/svg">
<path d="M4.67252 0.0219884C3.32617 0.251909 2.12054 1.04326 1.32085 2.22195C0.521165 3.40064 0.192924 4.87012 0.408339 6.30713C0.623755 7.74413 1.36518 9.03094 2.46951 9.88447C3.57385 10.738 4.95063 11.0884 6.29697 10.8584H21.5262L22.44 13.5675L26.6026 27.1131L30.7653 40.6587C31.1714 42.0674 32.8974 43.3678 34.2172 43.3678H69.7521C71.1735 43.3678 72.7979 42.0674 73.204 40.6587L81.4278 13.5675C81.8339 12.1588 81.2248 10.8584 79.8034 10.8584H34.7249L30.8668 3.05619C30.4559 2.16066 29.8214 1.40353 29.0332 0.86818C28.245 0.332827 27.3337 0.040015 26.3996 0.0219884L6.09392 0.0219884C5.78995 -0.00732947 5.48413 -0.00732947 5.18016 0.0219884C4.97729 0.00897296 4.77387 0.00897296 4.57099 0.0219884L4.67252 0.0219884ZM36.7554 54.2042C33.9126 54.2042 31.679 56.5882 31.679 59.6224C31.679 62.6566 33.9126 65.0406 36.7554 65.0406C39.5982 65.0406 41.8318 62.6566 41.8318 59.6224C41.8318 56.5882 39.5982 54.2042 36.7554 54.2042ZM67.2139 54.2042C64.3711 54.2042 62.1375 56.5882 62.1375 59.6224C62.1375 62.6566 64.3711 65.0406 67.2139 65.0406C70.0567 65.0406 72.2903 62.6566 72.2903 59.6224C72.2903 56.5882 70.0567 54.2042 67.2139 54.2042Z" fill="#850000"/>
</svg>
