<svg width="29" height="30" viewBox="0 0 29 30" fill="none" xmlns="http://www.w3.org/2000/svg">
<path d="M13.8155 8.625C14.5918 8.625 15.3362 8.95424 15.8852 9.54029C16.4341 10.1263 16.7425 10.9212 16.7425 11.75C16.7425 12.1604 16.6668 12.5667 16.5197 12.9459C16.3726 13.325 16.157 13.6695 15.8852 13.9597C15.6134 14.2499 15.2907 14.4801 14.9356 14.6371C14.5805 14.7942 14.1998 14.875 13.8155 14.875C13.0392 14.875 12.2947 14.5458 11.7458 13.9597C11.1968 13.3737 10.8885 12.5788 10.8885 11.75C10.8885 10.9212 11.1968 10.1263 11.7458 9.54029C12.2947 8.95424 13.0392 8.625 13.8155 8.625ZM13.8155 3C15.9891 3 18.0737 3.92187 19.6106 5.56282C21.1476 7.20376 22.0111 9.42936 22.0111 11.75C22.0111 18.3125 13.8155 28 13.8155 28C13.8155 28 5.61987 18.3125 5.61987 11.75C5.61987 9.42936 6.48333 7.20376 8.02031 5.56282C9.55728 3.92187 11.6419 3 13.8155 3ZM13.8155 5.5C12.2629 5.5 10.7739 6.15848 9.67607 7.33058C8.57823 8.50268 7.96147 10.0924 7.96147 11.75C7.96147 13 7.96147 15.5 13.8155 23.8875C19.6695 15.5 19.6695 13 19.6695 11.75C19.6695 10.0924 19.0527 8.50268 17.9549 7.33058C16.857 6.15848 15.368 5.5 13.8155 5.5Z" fill="#850000"/>
</svg>
