<svg width="29" height="31" viewBox="0 0 29 31" fill="none" xmlns="http://www.w3.org/2000/svg">
<path d="M19.964 17.7856C20.0577 16.9606 20.128 16.1356 20.128 15.2856C20.128 14.4356 20.0577 13.6106 19.964 12.7856H23.9213C24.1087 13.5856 24.2257 14.4231 24.2257 15.2856C24.2257 16.1481 24.1087 16.9856 23.9213 17.7856M17.8917 24.7356C18.5942 23.3481 19.1328 21.8481 19.5074 20.2856H22.9613C21.827 22.371 20.0274 23.9506 17.8917 24.7356ZM17.599 17.7856H12.1197C12.0026 16.9606 11.9324 16.1356 11.9324 15.2856C11.9324 14.4356 12.0026 13.5981 12.1197 12.7856H17.599C17.7044 13.5981 17.7864 14.4356 17.7864 15.2856C17.7864 16.1356 17.7044 16.9606 17.599 17.7856ZM14.8594 25.2356C13.8876 23.7356 13.1032 22.0731 12.6231 20.2856H17.0956C16.6156 22.0731 15.8311 23.7356 14.8594 25.2356ZM10.1762 10.2856H6.75743C7.88006 8.19466 9.67833 6.6125 11.8153 5.83564C11.1128 7.22314 10.5859 8.72314 10.1762 10.2856ZM6.75743 20.2856H10.1762C10.5859 21.8481 11.1128 23.3481 11.8153 24.7356C9.68281 23.9502 7.88707 22.3703 6.75743 20.2856ZM5.79737 17.7856C5.61005 16.9856 5.49297 16.1481 5.49297 15.2856C5.49297 14.4231 5.61005 13.5856 5.79737 12.7856H9.75467C9.66101 13.6106 9.59076 14.4356 9.59076 15.2856C9.59076 16.1356 9.66101 16.9606 9.75467 17.7856M14.8594 5.32314C15.8311 6.82314 16.6156 8.49814 17.0956 10.2856H12.6231C13.1032 8.49814 13.8876 6.82314 14.8594 5.32314ZM22.9613 10.2856H19.5074C19.141 8.73747 18.5984 7.24301 17.8917 5.83564C20.046 6.62314 21.8373 8.21064 22.9613 10.2856ZM14.8594 2.78564C8.38484 2.78564 3.15137 8.41064 3.15137 15.2856C3.15137 18.6008 4.38488 21.7803 6.58056 24.1245C7.66775 25.2852 8.95842 26.206 10.3789 26.8341C11.7994 27.4623 13.3218 27.7856 14.8594 27.7856C17.9645 27.7856 20.9425 26.4687 23.1382 24.1245C25.3338 21.7803 26.5673 18.6008 26.5673 15.2856C26.5673 13.6441 26.2645 12.0187 25.6761 10.5021C25.0877 8.98553 24.2253 7.60754 23.1382 6.44681C22.051 5.28608 20.7603 4.36533 19.3398 3.73715C17.9193 3.10897 16.3969 2.78564 14.8594 2.78564Z" fill="#850000"/>
</svg>
